{"title":"The.Musketeer.2001.iNTERNAL.DVDRip.XviD-EXViDiNT","uid":7011975,"size":1484031756,"categoryP":"video","categoryS":"movies","magnet":"?xt=urn:btih:fa575d1107f0ce12d09a5da5202a5c1ea8186294&amp;dn=The.Musketeer.2001.iNTERNAL.DVDRip.XviD-EXViDiNT&amp;tr=udp%3A%2F%2Ftracker.openbittorrent.com%3A80&amp;tr=udp%3A%2F%2Fopen.demonii.com%3A1337&amp;tr=udp%3A%2F%2Ftracker.coppersurfer.tk%3A6969&amp;tr=udp%3A%2F%2Fexodus.desync.com%3A6969","seeders":0,"leechers":0,"uploader":"TvTeam","files":8,"time":1328500741,"description":". \n &lt;a href=&quot;\nhttp://www.torrenting.com&quot; rel=&quot;nofollow&quot; target=&quot;_NEW&quot;&gt;\nhttp://www.torrenting.com&lt;/a&gt;          :     Once &amp; For all ;)\n\n\n               www . Torrenting . Com \n\n(((((((((((((= Enjoy No RAR releases =))))))))))))))))))))\n\n\n...................................NFO:....................................\n\n.                                                                                                     \n       \n     \n     \n       \n       \n     \n     \n                                         \n                                         \n                EXVID                    \n                                         \n         \n                                         \n         Filled the Archives             \n                                         \n         \n                                         \n                With:                    \n                                         \n         \n                                         \n                                    \n     E240                           \n                                    \n     SP               (C) 2009      \n                                         \n     \n     \n     \n                                                                                  \n                                                                                   \n               The.Musketeer.2001.iNTERNAL.DVDRip.XviD-EXViDiNT                     \n                                                                                   \n                                                                                  \n     \n                                                                                               \nEXViD aims to iNTERNAL those releases which have been lost in the archives.\nEXViD aims to PRE non-internal releases which have poor sources and are likely skipped by others. &lt;a href=&quot;\nhttp://www.imdb.com/title/tt0246544/&quot; rel=&quot;nofollow&quot; target=&quot;_NEW&quot;&gt;\nhttp://www.imdb.com/title/tt0246544/&lt;/a&gt;\nSubtitles: NL\nDate: 2012.01\n\nDirector: Peter Hyams\n\nGenres: Action | Drama | Adventure | Romance\n\nPlot:\nIn 17th century Paris, a dashing swordsman named D'Artagnan finds himself at odds with the\npowerful forces taking over France. He sets out to avenge the murder of his parents and finds his\ncountry cleaved by chaos and civil unrest. His heart softens only for Francesca, a fiery peasant\ngirl who claims D'Artagnan's heart on sight.\n\nCast:\nCatherine Deneuve\t...\tThe Queen\nMena Suvari\t...\tFrancesca Bonacieux\nStephen Rea\t...\tCardinal Richelieu\nTim Roth\t...\tFebre the Man in Black\nJustin Chambers\t...\tD'Artagnan\nBill Treacher\t...\tBonacieux\nDaniel Mesguich\t...\tKing Louis XIII\nDavid Schofield\t...\tAramis\nNick Moran\t...\tPorthos\nSteve Speirs\t...\tAthos\nJan Gregor Kremp\t...\tLord Buckingham\nJeremy Clyde\t...\tPlanchet\nMichael Byrne\t...\tMadame Lacross\nJean-Pierre Castaldi\t...\tD'Artagnan's Father\nTsilla Chelton\t...\tD'Artagnan's Mother\n\nStats:\nFormat                                   : AVI\nFormat/Info                              : Audio Video Interleave\nFormat profile                           : OpenDML\nFile size                                : 1.36 GiB\nDuration                                 : 1h 39mn\nOverall bit rate                         : 1 958 Kbps\n\nVideo\nID                                       : 0\nFormat                                   : MPEG-4 Visual\nFormat profile                           : Advanced Simple@L5\nFormat settings, BVOP                    : 2\nFormat settings, QPel                    : No\nFormat settings, GMC                     : No warppoints\nFormat settings, Matrix                  : Default (MPEG)\nCodec ID                                 : XVID\nCodec ID/Hint                            : XviD\nDuration                                 : 1h 39mn\nBit rate                                 : 1 504 Kbps\nWidth                                    : 640 pixels\nHeight                                   : 272 pixels\nDisplay aspect ratio                     : 2.35:1\nFrame rate                               : 25.000 fps\nColor space                              : YUV\nChroma subsampling                       : 4:2:0\nBit depth                                : 8 bits\nScan type                                : Progressive\nCompression mode                         : Lossy\nBits/(Pixel*Frame)                       : 0.346\nStream size                              : 1.05 GiB (77%)\nWriting library                          : XviD 64\n\nAudio\nID                                       : 1\nFormat                                   : AC-3\nFormat/Info                              : Audio Coding 3\nMode extension                           : CM (complete main)\nCodec ID                                 : 2000\nDuration                                 : 1h 39mn\nBit rate mode                            : Constant\nBit rate                                 : 448 Kbps\nChannel(s)                               : 6 channels\nChannel positions                        : Front: L C R, Side: L R, LFE\nSampling rate                            : 48.0 KHz\nBit depth                                : 16 bits\nCompression mode                         : Lossy\nDelay relative to video                  : 40ms\nStream size                              : 320 MiB (23%)\nAlignment                                : Split accross interleaves\nInterleave, duration                     : 500 ms (12.50 video frames)\nInterleave, preload duration             : 500 ms\n\n\n\nRelease notes:\nEnjoy!\n\nLooking for:\n75TB+ Archives\nDUTCH/FLEMiSH Archives\n                                                                                                    \nGreets: CRBS EPiSODE FiCO FLS iLS KLASSiGER LiPSYNC MADE NODLABS RUNNER SPRiNTER      \n   \n\n                                                                    ASCII DONE BY XX^NFO 2oo9     \n \n\nRLS-Crc: 415243414445:42EECD90","torrent":{"xt":"urn:btih:fa575d1107f0ce12d09a5da5202a5c1ea8186294","amp;dn":"The.Musketeer.2001.iNTERNAL.DVDRip.XviD-EXViDiNT","amp;tr":["udp%3A%2F%2Ftracker.openbittorrent.com%3A80","udp%3A%2F%2Fopen.demonii.com%3A1337","udp%3A%2F%2Ftracker.coppersurfer.tk%3A6969","udp%3A%2F%2Fexodus.desync.com%3A6969"],"infoHash":"fa575d1107f0ce12d09a5da5202a5c1ea8186294","infoHashBuffer":{"type":"Buffer","data":[250,87,93,17,7,240,206,18,208,154,93,165,32,42,92,30,168,24,98,148]},"announce":[],"urlList":[]}}